<?xml version="1.0" standalone="no"?>
<!DOCTYPE svg PUBLIC "-//W3C//DTD SVG 20010904//EN"
 "http://www.w3.org/TR/2001/REC-SVG-20010904/DTD/svg10.dtd">
<svg version="1.0" xmlns="http://www.w3.org/2000/svg"
 width="396.000000pt" height="287.000000pt" viewBox="0 0 396.000000 287.000000"
 preserveAspectRatio="xMidYMid meet">

<g transform="translate(0.000000,287.000000) scale(0.100000,-0.100000)"
fill="#000000" stroke="none">
<path d="M1440 2225 c-305 -305 -550 -555 -545 -555 6 0 253 243 550 540 297
297 544 540 550 540 5 0 254 -244 552 -542 298 -298 544 -540 547 -537 3 3
-243 253 -547 557 l-552 552 -555 -555z"/>
<path d="M1865 2390 l-120 -120 118 -117 118 -117 -73 -73 -73 -73 80 -80 80
-80 80 80 80 80 -73 73 -72 73 117 117 117 118 -119 119 c-66 66 -124 120
-130 120 -6 0 -64 -54 -130 -120z m240 -7 c58 -60 105 -110 105 -113 0 -3 -48
-54 -108 -113 l-107 -107 -110 110 c-60 60 -107 112 -104 114 32 36 212 216
215 216 2 0 51 -48 109 -107z m-37 -560 c-34 -35 -67 -63 -72 -63 -6 0 -39 28
-73 62 l-63 62 67 68 67 68 68 -67 68 -67 -62 -63z"/>
<path d="M1660 2095 l-54 -56 61 -61 61 -61 56 55 c31 30 56 59 56 64 0 13
-103 114 -115 114 -6 0 -35 -25 -65 -55z m120 -10 l44 -45 -46 -47 -46 -46
-29 24 c-17 13 -38 35 -48 47 -17 24 -17 24 26 68 24 24 46 44 49 44 3 0 26
-20 50 -45z"/>
<path d="M2202 2097 c-29 -29 -52 -57 -52 -63 0 -6 25 -34 56 -63 l56 -53 59
58 c65 64 65 56 -6 132 -22 23 -44 42 -50 42 -6 0 -34 -24 -63 -53z m108 -12
c44 -44 44 -44 24 -66 -37 -43 -65 -69 -72 -69 -4 0 -28 20 -52 45 l-44 45 44
45 c24 25 47 45 50 45 3 0 26 -20 50 -45z"/>
<path d="M258 1583 c-53 -5 -63 -17 -20 -26 54 -12 54 -11 56 -206 1 -99 0
-185 -4 -191 -3 -5 -23 -16 -44 -23 -36 -12 -34 -13 56 -14 72 0 86 2 60 9
-20 5 -36 18 -41 31 -8 22 -15 171 -12 282 1 56 8 53 50 -19 14 -24 53 -72 86
-107 33 -35 81 -90 108 -121 26 -32 52 -58 57 -58 5 0 10 85 12 189 3 177 4
191 25 219 l22 30 -68 4 c-73 3 -80 -2 -31 -22 36 -15 42 -34 36 -115 -2 -33
-5 -85 -5 -115 l-1 -54 -51 49 c-28 28 -85 98 -126 158 -59 82 -81 107 -97
105 -12 -1 -42 -3 -68 -5z"/>
<path d="M710 1581 c0 -5 8 -11 18 -14 26 -6 32 -46 32 -207 0 -181 -4 -198
-48 -217 -47 -19 -35 -26 22 -12 25 6 71 9 101 7 55 -5 79 8 28 14 l-28 3 -2
190 c0 104 3 198 8 207 5 10 18 18 29 18 10 0 22 5 25 10 4 6 -28 10 -89 10
-53 0 -96 -4 -96 -9z"/>
<path d="M1072 1564 c-55 -27 -104 -86 -128 -154 -45 -125 24 -263 146 -289
74 -16 121 -13 157 9 31 19 80 96 69 108 -7 6 -5 9 -31 -43 -30 -60 -76 -81
-151 -69 -50 8 -61 13 -77 41 -27 48 -44 207 -28 276 14 66 66 126 109 128 72
3 110 -11 151 -55 47 -50 25 -152 -27 -120 -20 13 -23 40 -4 37 6 -2 12 2 12
8 0 6 -8 9 -17 7 -26 -5 -24 -58 2 -68 30 -11 64 6 76 37 20 54 -33 131 -109
158 -63 21 -90 19 -150 -11z"/>
<path d="M3100 1440 c0 -16 -61 -42 -86 -37 -13 2 -21 0 -18 -4 3 -5 16 -9 29
-9 31 0 35 -15 35 -130 0 -89 -2 -100 -21 -114 -20 -13 -15 -15 60 -18 46 -2
80 1 78 6 -2 5 -11 10 -21 12 -10 1 -23 7 -29 13 -13 13 -22 148 -13 195 8 43
59 85 85 69 22 -14 26 -52 6 -59 -21 -8 -33 5 -15 16 8 5 12 12 8 15 -3 3 -13
-2 -23 -11 -14 -15 -15 -19 -2 -31 29 -30 77 19 57 57 -16 30 -47 34 -85 11
l-35 -20 6 24 c4 15 2 25 -5 25 -6 0 -11 -4 -11 -10z"/>
<path d="M1865 1433 c-11 -3 -33 -17 -48 -31 l-29 -27 8 29 c7 27 5 29 -17 21
-13 -4 -41 -8 -61 -9 -29 0 -35 -3 -26 -13 6 -7 16 -13 23 -13 18 0 25 -33 25
-116 0 -96 -9 -136 -32 -141 -10 -3 -18 -10 -18 -15 0 -5 4 -7 9 -4 5 3 38 6
75 7 37 1 69 6 72 10 3 5 -4 9 -15 9 -30 0 -41 30 -41 117 0 104 20 147 72
151 56 5 68 -20 68 -139 0 -106 -5 -129 -26 -129 -8 0 -14 -4 -14 -8 0 -5 29
-8 65 -8 64 0 85 9 45 19 -19 5 -20 14 -20 119 0 101 2 117 20 136 26 28 66
29 80 2 6 -11 11 -67 11 -126 0 -107 -8 -134 -39 -134 -8 0 -12 -3 -9 -6 4 -4
43 -6 88 -5 62 2 79 -1 73 -10 -4 -7 -3 -10 3 -6 6 4 40 7 77 8 37 1 69 6 72
10 3 5 -4 9 -15 9 -30 0 -41 30 -41 117 0 103 21 147 73 151 54 5 67 -21 67
-139 0 -106 -5 -129 -26 -129 -8 0 -14 -3 -14 -7 0 -5 29 -8 65 -9 64 0 85 8
45 19 -19 5 -20 14 -20 119 0 101 2 117 20 136 26 28 66 29 80 2 6 -11 11 -67
11 -126 0 -106 -8 -134 -38 -134 -8 0 -12 -3 -10 -7 3 -5 43 -6 89 -4 70 3 78
5 51 13 l-33 9 0 110 0 111 -34 34 c-41 41 -73 43 -114 9 -19 -16 -33 -21 -37
-15 -11 18 -73 39 -97 33 -13 -3 -36 -17 -51 -32 l-29 -26 8 29 c7 27 5 29
-17 21 -13 -4 -41 -8 -61 -9 -29 0 -35 -3 -26 -13 6 -7 16 -13 24 -13 19 0 27
-58 22 -156 -5 -86 -15 -113 -40 -98 -7 5 -17 9 -23 10 -5 0 -16 2 -22 2 -10
2 -13 32 -13 113 l0 111 -34 34 c-41 41 -73 43 -114 9 -19 -16 -33 -21 -37
-15 -5 8 -74 43 -79 39 0 -1 -10 -3 -21 -6z"/>
<path d="M2778 1415 c-31 -21 -38 -33 -48 -82 -15 -68 -3 -119 38 -164 62 -68
192 -41 192 41 0 24 -5 31 -26 36 -17 4 -31 1 -41 -9 -17 -16 -11 -47 8 -47 9
0 9 3 0 14 -14 17 9 39 33 30 38 -15 -8 -94 -54 -94 -47 0 -71 30 -84 108 l-5
32 85 0 86 0 -7 46 c-3 26 -11 57 -17 69 -22 49 -102 59 -160 20z m109 -15 c7
-14 13 -41 13 -61 0 -34 -2 -37 -37 -43 -76 -12 -76 -12 -70 45 10 84 65 118
94 59z"/>
<path d="M3609 1415 c-42 -28 -47 -37 -55 -109 -10 -85 38 -161 109 -173 71
-11 127 22 127 77 0 24 -5 31 -26 36 -17 4 -31 1 -41 -9 -17 -16 -11 -47 8
-47 9 0 9 3 0 14 -14 17 9 39 33 30 40 -16 -9 -94 -59 -94 -31 0 -75 43 -75
74 0 12 -3 31 -6 44 -6 22 -5 22 80 22 77 0 86 2 86 18 0 36 -29 114 -47 128
-29 22 -94 17 -134 -11z m106 -15 c8 -16 15 -44 15 -63 0 -32 -3 -35 -37 -41
-66 -10 -73 -8 -73 22 0 97 60 149 95 82z"/>
<path d="M1460 1411 c-114 -61 -112 -219 4 -277 99 -49 225 70 194 184 -13 47
-33 70 -83 93 -51 23 -72 24 -115 0z m90 -6 c48 -25 66 -85 54 -176 -9 -65
-31 -89 -84 -89 -49 0 -71 28 -78 100 -6 68 4 114 34 150 30 34 34 35 74 15z"/>
<path d="M3350 1413 c-58 -21 -95 -110 -78 -187 18 -85 112 -130 188 -91 17 9
30 22 30 30 0 9 -9 5 -26 -12 -21 -21 -32 -24 -61 -20 -43 7 -49 15 -64 87 -9
41 -9 69 0 110 16 78 49 97 111 65 41 -21 57 -53 36 -73 -13 -13 -18 -14 -28
-4 -10 10 -10 15 2 22 8 5 11 12 8 15 -11 11 -28 -5 -28 -25 0 -23 26 -33 51
-20 35 19 18 69 -31 95 -29 15 -81 19 -110 8z"/>
<path d="M1330 1033 c0 -9 654 -663 664 -663 14 0 669 660 662 667 -4 4 -154
-140 -334 -320 l-327 -327 -325 325 c-179 179 -328 325 -332 325 -5 0 -8 -3
-8 -7z"/>
<path d="M1525 560 l470 -470 467 467 c257 257 465 469 462 472 -3 3 -211
-201 -462 -452 -251 -251 -462 -457 -467 -457 -6 0 -215 205 -465 455 -250
250 -459 455 -465 455 -5 0 202 -212 460 -470z"/>
<path d="M1920 945 l-64 -65 -36 35 -36 35 -42 -43 -42 -43 38 -37 c21 -20 42
-37 47 -37 5 0 23 14 41 31 l32 31 64 -66 c36 -36 69 -66 74 -66 4 0 38 29 74
65 l66 65 29 -30 c16 -16 34 -30 40 -30 6 0 28 17 48 38 l37 38 -43 42 -43 42
-34 -35 -34 -35 -66 65 c-36 36 -70 65 -76 65 -5 0 -39 -29 -74 -65z m152 -30
l48 -49 -62 -63 -63 -63 -64 64 -65 65 64 60 c73 67 63 68 142 -14z m-253 -18
c25 -27 21 -44 -15 -71 -25 -18 -26 -18 -50 5 -30 28 -30 36 -2 66 27 29 39
29 67 0z m418 1 c29 -27 29 -36 1 -65 -27 -29 -31 -29 -63 2 -30 31 -31 33 -3
62 27 29 36 29 65 1z"/>
</g>
</svg>
